<?xml version="1.0" encoding="UTF-8" standalone="no"?>
<!DOCTYPE svg PUBLIC "-//W3C//DTD SVG 1.1//EN" "http://www.w3.org/Graphics/SVG/1.1/DTD/svg11.dtd">
<svg width="100%" height="100%" viewBox="0 0 393 794" version="1.1" xmlns="http://www.w3.org/2000/svg" xmlns:xlink="http://www.w3.org/1999/xlink" xml:space="preserve" xmlns:serif="http://www.serif.com/" style="fill-rule:evenodd;clip-rule:evenodd;stroke-linejoin:round;stroke-miterlimit:2;">
    <g transform="matrix(1,0,0,1,-403.7,-53)">
        <path d="M600,53C599.98,53 599.96,53 599.941,53C586.149,53 574.801,64.349 574.801,78.14C574.801,79.196 574.867,80.252 575,81.3C575.393,84.35 576.349,87.3 577.82,90C578.325,90.951 578.889,91.87 579.51,92.75C586.62,102.654 599.949,106.047 610.93,100.75C611.785,100.344 612.614,99.883 613.41,99.37C620.645,94.754 625.037,86.742 625.037,78.16C625.037,64.404 613.756,53.067 600,53ZM600,74.39C595.858,74.39 592.45,70.982 592.45,66.84C592.45,62.698 595.858,59.29 600,59.29C604.142,59.29 607.55,62.698 607.55,66.84C607.55,70.982 604.142,74.39 600,74.39Z" style="fill:rgb(238,239,240);fill-rule:nonzero;"/>
    </g>
    <g transform="matrix(1,0,0,1,-403.7,-53)">
        <path d="M579.87,64.32L579.51,92.79C578.888,91.897 578.324,90.965 577.82,90L579.87,64.32Z" style="fill-opacity:0.1;fill-rule:nonzero;"/>
    </g>
    <g transform="matrix(1,0,0,1,-403.7,-53)">
        <path d="M613.84,64.32L613.41,99.46C612.614,99.973 611.785,100.434 610.93,100.84L613.84,64.32Z" style="fill-opacity:0.1;fill-rule:nonzero;"/>
    </g>
    <g transform="matrix(1,0,0,1,-403.7,-53)">
        <path d="M625,81.3C623.413,93.817 612.647,103.303 600.03,103.303C587.413,103.303 576.647,93.817 575.06,81.3C590.844,73.771 609.216,73.771 625,81.3Z" style="fill-opacity:0.1;fill-rule:nonzero;"/>
    </g>
    <g transform="matrix(1,0,0,1,-403.7,-53)">
        <path d="M657.88,136.05C657.881,140.339 657.408,144.615 656.47,148.8C654.768,156.369 651.546,163.514 647,169.8C645.466,171.907 643.796,173.911 642,175.8C634.111,184.136 623.916,189.937 612.72,192.46C610.705,192.915 608.665,193.249 606.61,193.46C604.407,193.727 602.189,193.857 599.97,193.85C592.718,193.857 585.53,192.5 578.78,189.85C576.848,189.1 574.962,188.239 573.13,187.27C560.044,180.405 550.06,168.796 545.23,154.83C544.536,152.829 543.958,150.788 543.5,148.72C543.14,147.13 542.85,145.52 542.63,143.88C542.273,141.258 542.092,138.616 542.09,135.97C542.085,130.24 542.931,124.541 544.6,119.06C544.93,117.95 545.31,116.86 545.71,115.77C554.137,93.178 575.837,78.112 599.949,78.112C619.087,78.112 637.029,87.602 647.8,103.42C654.379,113.027 657.895,124.406 657.88,136.05Z" style="fill:rgb(238,239,240);fill-rule:nonzero;"/>
    </g>
    <g transform="matrix(1,0,0,1,-403.7,-53)">
        <path d="M545.74,115.85L545.26,154.91C544.566,152.909 543.988,150.868 543.53,148.8C543.17,147.21 542.88,145.6 542.66,143.96L544.66,119.14C545,118 545.34,116.94 545.74,115.85Z" style="fill-opacity:0.1;fill-rule:nonzero;"/>
    </g>
    <g transform="matrix(1,0,0,1,-403.7,-53)">
        <path d="M579.87,103.33L578.81,189.93C576.878,189.18 574.992,188.319 573.16,187.35L579.87,103.33Z" style="fill-opacity:0.1;fill-rule:nonzero;"/>
    </g>
    <g transform="matrix(1,0,0,1,-403.7,-53)">
        <path d="M613.84,103.33L612.75,192.52C610.735,192.975 608.695,193.309 606.64,193.52L613.84,103.33Z" style="fill-opacity:0.1;fill-rule:nonzero;"/>
    </g>
    <g transform="matrix(1,0,0,1,-403.7,-53)">
        <path d="M647.82,103.33L647.82,103.43L647,169.85C645.466,171.957 643.796,173.961 642,175.85L647.77,103.41L647.82,103.33Z" style="fill-opacity:0.1;fill-rule:nonzero;"/>
    </g>
    <g transform="matrix(1,0,0,1,-403.7,-53)">
        <path d="M656.47,148.8C650.534,175.105 626.966,193.947 600,193.947C573.034,193.947 549.466,175.105 543.53,148.8C578.379,128.466 621.621,128.466 656.47,148.8Z" style="fill-opacity:0.1;fill-rule:nonzero;"/>
    </g>
    <g transform="matrix(1,0,0,1,-403.7,-53)">
        <path d="M712,248C712.045,275.111 702.199,301.33 684.32,321.71C681.96,324.39 679.5,326.96 676.91,329.4C663.654,341.963 647.513,351.081 629.91,355.95C627.02,356.77 624.06,357.45 621.08,358C606.096,360.857 590.686,360.635 575.79,357.35C572.87,356.72 569.99,355.95 567.16,355.08C550.175,349.863 534.678,340.667 521.96,328.26C519.57,325.97 517.29,323.54 515.13,321.01C497.631,300.689 488,274.744 488,247.927C488,186.486 538.559,135.927 600,135.927C661.441,135.927 712,186.486 712,247.927C712,247.952 712,247.976 712,248Z" style="fill:rgb(255,0,0);fill-rule:nonzero;"/>
    </g>
    <path d="M118.22,275.3L119.53,134.64L111.39,268.05L118.22,275.3Z" style="fill-opacity:0.1;fill-rule:nonzero;"/>
    <g transform="matrix(1,0,0,1,-403.7,-53)">
        <path d="M577.34,187.64L575.75,357.39C572.83,356.76 569.95,355.99 567.12,355.12L577.34,187.64Z" style="fill-opacity:0.1;fill-rule:nonzero;"/>
    </g>
    <g transform="matrix(1,0,0,1,-403.7,-53)">
        <path d="M631.45,187.64L629.87,356C626.98,356.82 624.02,357.5 621.04,358.05L631.45,187.64Z" style="fill-opacity:0.1;fill-rule:nonzero;"/>
    </g>
    <path d="M280.61,268.75L281.85,134.64L273.19,276.44L280.61,268.75Z" style="fill-opacity:0.1;fill-rule:nonzero;"/>
    <ellipse cx="196.3" cy="403.29" rx="173.65" ry="176.79" style="fill:rgb(238,239,240);"/>
    <g transform="matrix(1,0,0,1,-403.7,-53)">
        <path d="M773.65,456.29C773.698,481.76 768.297,506.949 757.81,530.16C730.34,590.92 670,633.09 600,633.09C530,633.09 469.66,590.92 442.19,530.16C431.703,506.949 426.302,481.76 426.35,456.29C426.35,358.65 504.09,279.5 600,279.5C695.91,279.5 773.65,358.65 773.65,456.29Z" style="fill-opacity:0.05;fill-rule:nonzero;"/>
    </g>
    <path d="M69.21,315.84L52.85,520.95L66.7,520.95L69.21,315.84Z" style="fill-opacity:0.1;fill-rule:nonzero;"/>
    <path d="M93.11,315.84L76.75,520.95L90.6,520.95L93.11,315.84Z" style="fill-opacity:0.1;fill-rule:nonzero;"/>
    <path d="M308.29,315.84L291.93,520.95L305.78,520.95L308.29,315.84Z" style="fill-opacity:0.1;fill-rule:nonzero;"/>
    <path d="M332.19,315.84L315.83,520.95L329.68,520.95L332.19,315.84Z" style="fill-opacity:0.1;fill-rule:nonzero;"/>
    <g transform="matrix(1,0,0,1,-403.7,-53)">
        <path d="M757.81,530.16C730.34,590.92 670,633.09 600,633.09C530,633.09 469.66,590.92 442.19,530.16C479.185,480.174 537.812,450.627 600,450.627C662.188,450.627 720.815,480.174 757.81,530.16Z" style="fill-opacity:0.1;fill-rule:nonzero;"/>
    </g>
    <g transform="matrix(1,0,0,1,-403.7,-53)">
        <path d="M796.3,650.7C796.382,699.511 778.179,746.625 745.3,782.7C741.733,786.653 737.993,790.453 734.08,794.1C721.108,806.247 706.549,816.578 690.8,824.81C686.54,827.05 682.18,829.13 677.72,831.05C664.494,836.757 650.677,840.98 636.52,843.64C631.96,844.5 627.353,845.197 622.7,845.73C615.164,846.593 607.585,847.017 600,847C594.06,847 588.193,846.74 582.4,846.22C577.78,845.8 573.2,845.22 568.68,844.51C554.896,842.304 541.391,838.616 528.4,833.51C524.053,831.837 519.78,830 515.58,828C500.873,820.992 487.1,812.173 474.58,801.75C470.807,798.63 467.163,795.367 463.65,791.96C425.265,755.04 403.579,703.998 403.65,650.74C403.65,644.8 403.91,638.93 404.43,633.13C413.34,532.96 497.43,454.44 599.95,454.44C702.47,454.44 786.56,532.96 795.47,633.13C796.017,638.903 796.293,644.76 796.3,650.7Z" style="fill:rgb(255,0,0);fill-rule:nonzero;"/>
    </g>
    <g transform="matrix(1,0,0,1,-403.7,-53)">
        <path d="M476.67,579L474.6,801.71C470.827,798.59 467.183,795.327 463.67,791.92L476.67,579Z" style="fill-opacity:0.1;fill-rule:nonzero;"/>
    </g>
    <g transform="matrix(1,0,0,1,-403.7,-53)">
        <path d="M530.78,579L528.4,833.52C524.053,831.84 519.78,830 515.58,828L530.78,579Z" style="fill-opacity:0.1;fill-rule:nonzero;"/>
    </g>
    <path d="M178.69,793.22L181.19,525.98L164.98,791.51L178.69,793.22Z" style="fill-opacity:0.1;fill-rule:nonzero;"/>
    <path d="M232.83,790.6L235.29,525.98L219.01,792.69L232.83,790.6Z" style="fill-opacity:0.1;fill-rule:nonzero;"/>
    <g transform="matrix(1,0,0,1,-403.7,-53)">
        <path d="M693.1,579L690.81,824.79C686.55,827.03 682.19,829.11 677.73,831.03L693.1,579Z" style="fill-opacity:0.1;fill-rule:nonzero;"/>
    </g>
    <g transform="matrix(1,0,0,1,-403.7,-53)">
        <path d="M747.21,579L745.31,782.68C741.743,786.633 738.003,790.433 734.09,794.08L747.21,579Z" style="fill-opacity:0.1;fill-rule:nonzero;"/>
    </g>
    <g transform="matrix(1,0,0,1,-403.7,-53)">
        <path d="M705.7,353.74C705.7,410.74 658.38,456.92 600,456.92C541.62,456.92 494.3,410.73 494.3,353.74C494.297,344.307 495.613,334.919 498.21,325.85C508.61,289.58 538.81,261.38 576.73,253.07C592.062,249.723 607.938,249.723 623.27,253.07C661.19,261.38 691.39,289.58 701.79,325.85C704.387,334.919 705.703,344.307 705.7,353.74Z" style="fill-opacity:0.1;fill-rule:nonzero;"/>
    </g>
    <g transform="matrix(1,0,0,1,-403.7,-53)">
        <path d="M703.18,351.22C703.112,407.677 656.637,454.095 600.18,454.095C543.676,454.095 497.18,407.599 497.18,351.095C497.18,294.591 543.676,248.095 600.18,248.095C646.237,248.095 686.959,278.987 699.37,323.34C701.907,332.416 703.189,341.796 703.18,351.22Z" style="fill:rgb(255,171,158);fill-rule:nonzero;"/>
    </g>
    <path d="M308.29,204.52C308.29,197.897 302.913,192.52 296.29,192.52L96.31,192.52C89.687,192.52 84.31,197.897 84.31,204.52L84.31,253.5C84.31,260.123 89.687,265.5 96.31,265.5L296.29,265.5C302.913,265.5 308.29,260.123 308.29,253.5L308.29,204.52Z" style="fill-opacity:0.1;"/>
    <g transform="matrix(1,0,0,1,-403.7,-53)">
        <path d="M699.37,323.34C698.549,323.467 697.72,323.534 696.89,323.54L503.11,323.54C502.28,323.534 501.451,323.467 500.63,323.34C510.881,286.903 540.37,258.907 577.29,250.56L622.71,250.56C659.63,258.907 689.119,286.903 699.37,323.34Z" style="fill-opacity:0.1;fill-rule:nonzero;"/>
    </g>
    <path d="M308.29,210.14C308.29,201.806 301.524,195.04 293.19,195.04L99.41,195.04C91.076,195.04 84.31,201.806 84.31,210.14L84.31,252.92C84.31,261.254 91.076,268.02 99.41,268.02L293.19,268.02C301.524,268.02 308.29,261.254 308.29,252.92L308.29,210.14Z" style="fill:rgb(238,239,240);"/>
    <circle cx="196.3" cy="442.93" r="127.09" style="fill-opacity:0.1;"/>
    <circle cx="196.3" cy="440.41" r="127.09" style="fill:rgb(238,239,240);"/>
    <g transform="matrix(1,0,0,1,-403.7,-53)">
        <path d="M727.09,493.41C727.095,543.902 697.032,589.816 650.75,610C646.872,611.703 642.907,613.199 638.87,614.48C631.634,616.819 624.2,618.493 616.66,619.48C612.66,620.01 608.56,620.35 604.42,620.48C602.94,620.53 601.47,620.55 600,620.55C594.21,620.551 588.427,620.16 582.69,619.38C578.655,618.84 574.65,618.095 570.69,617.15C563.188,615.391 555.866,612.938 548.82,609.82C545.031,608.171 541.333,606.321 537.74,604.28C529.622,599.711 522.038,594.25 515.13,588C488.298,563.907 472.95,529.498 472.95,493.437C472.95,423.717 530.32,366.347 600.04,366.347C669.749,366.347 727.115,423.701 727.13,493.41L727.09,493.41Z" style="fill-opacity:0.03;fill-rule:nonzero;"/>
    </g>
    <g transform="matrix(1,0,0,1,-403.7,-53)">
        <path d="M651.59,398.48C651.59,408.15 628.49,427.91 600,427.91C571.51,427.91 548.41,408.15 548.41,398.48C548.41,388.81 571.51,392.86 600,392.86C628.49,392.86 651.59,388.8 651.59,398.48Z" style="fill-opacity:0.1;fill-rule:nonzero;"/>
    </g>
    <g transform="matrix(1,0,0,1,-403.7,-53)">
        <path d="M649.07,399C649.07,408.2 627.07,427 600,427C572.93,427 550.93,408.21 550.93,399C550.93,389.79 572.93,393.66 600,393.66C627.07,393.66 649.07,389.83 649.07,399Z" style="fill:rgb(255,171,158);fill-rule:nonzero;"/>
    </g>
    <g transform="matrix(1,0,0,1,-403.7,-53)">
        <path d="M632.72,402.68C632.72,408.82 618.07,421.34 600,421.34C581.93,421.34 567.28,408.82 567.28,402.68C567.28,396.54 581.93,399.12 600,399.12C618.07,399.12 632.72,396.54 632.72,402.68Z" style="fill:white;fill-rule:nonzero;"/>
    </g>
    <g transform="matrix(1,0,0,1,-403.7,-53)">
        <path d="M796.3,648.19C796.314,663.439 794.552,678.638 791.05,693.48L409,693.48C405.498,678.638 403.736,663.439 403.75,648.19C403.75,642.25 404.01,636.377 404.53,630.57L795.53,630.57C796.037,636.37 796.293,642.243 796.3,648.19Z" style="fill-opacity:0.1;fill-rule:nonzero;"/>
    </g>
    <g transform="matrix(1,0,0,1,-403.7,-53)">
        <path d="M796.3,653.22C796.313,668.472 794.551,683.675 791.05,698.52L409,698.52C405.499,683.675 403.737,668.472 403.75,653.22C403.75,647.28 404.01,641.407 404.53,635.6L795.53,635.6C796.037,641.4 796.293,647.273 796.3,653.22Z" style="fill-opacity:0.1;fill-rule:nonzero;"/>
    </g>
    <g transform="matrix(1,0,0,1,-403.7,-53)">
        <path d="M796.3,650.7C796.314,665.953 794.552,681.155 791.05,696L409,696C405.498,681.155 403.736,665.953 403.75,650.7C403.75,644.76 404.01,638.89 404.53,633.09L795.53,633.09C796.037,638.89 796.293,644.76 796.3,650.7Z" style="fill:rgb(55,62,70);fill-rule:nonzero;"/>
    </g>
    <circle cx="138.42" cy="288.16" r="13.84" style="fill-opacity:0.1;"/>
    <circle cx="138.42" cy="286.9" r="13.84" style="fill:rgb(238,239,240);"/>
    <circle cx="254.18" cy="288.16" r="13.84" style="fill-opacity:0.1;"/>
    <circle cx="254.18" cy="286.9" r="13.84" style="fill:rgb(238,239,240);"/>
    <circle cx="138.42" cy="286.9" r="6.29" style="fill:rgb(55,62,70);"/>
    <circle cx="254.18" cy="286.9" r="6.29" style="fill:rgb(55,62,70);"/>
    <circle cx="139.67" cy="284.38" r="1.26" style="fill:white;"/>
    <circle cx="251.66" cy="284.38" r="1.26" style="fill:white;"/>
    <ellipse cx="196.3" cy="315.84" rx="17.62" ry="23.91" style="fill-opacity:0.1;"/>
    <ellipse cx="196.3" cy="312.06" rx="17.62" ry="23.91" style="fill-opacity:0.1;"/>
    <ellipse cx="196.3" cy="313.32" rx="17.62" ry="23.91" style="fill:rgb(255,171,158);"/>
    <circle cx="196.3" cy="611.54" r="44.04" style="fill-opacity:0.1;"/>
    <circle cx="196.3" cy="611.54" r="41.52" style="fill:rgb(238,239,240);"/>
    <circle cx="196.3" cy="611.54" r="32.72" style="fill:rgb(55,62,70);"/>
    <circle cx="120.8" cy="315.84" r="8.81" style="fill:rgb(247,88,66);fill-opacity:0.3;"/>
    <circle cx="271.8" cy="315.84" r="8.81" style="fill:rgb(247,88,66);fill-opacity:0.3;"/>
    <g transform="matrix(1,0,0,1,-403.7,-53)">
        <path d="M516.94,439.3L515.13,588C511.866,585.076 508.755,581.985 505.81,578.74L516.94,439.3Z" style="fill-opacity:0.1;fill-rule:nonzero;"/>
    </g>
    <g transform="matrix(1,0,0,1,-403.7,-53)">
        <path d="M550.91,439.3L548.84,609.77C545.051,608.121 541.353,606.271 537.76,604.23L550.91,439.3Z" style="fill-opacity:0.1;fill-rule:nonzero;"/>
    </g>
    <g transform="matrix(1,0,0,1,-403.7,-53)">
        <path d="M584.89,439.3L582.69,619.3C578.655,618.76 574.65,618.015 570.69,617.07L584.89,439.3Z" style="fill-opacity:0.1;fill-rule:nonzero;"/>
    </g>
    <g transform="matrix(1,0,0,1,-403.7,-53)">
        <path d="M618.86,439.3L616.66,619.42C612.66,619.95 608.56,620.29 604.42,620.42L618.86,439.3Z" style="fill-opacity:0.1;fill-rule:nonzero;"/>
    </g>
    <g transform="matrix(1,0,0,1,-403.7,-53)">
        <path d="M652.84,439.3L650.75,610C646.872,611.703 642.907,613.199 638.87,614.48L652.84,439.3Z" style="fill-opacity:0.1;fill-rule:nonzero;"/>
    </g>
    <g transform="matrix(1,0,0,1,-403.7,-53)">
        <path d="M686.81,439.3L685,587.89C681.582,590.971 678,593.865 674.27,596.56L686.81,439.3Z" style="fill-opacity:0.1;fill-rule:nonzero;"/>
    </g>
    <path d="M116.61,268.02L119.53,220.21L119.09,268.02L116.61,268.02Z" style="fill-opacity:0.1;fill-rule:nonzero;"/>
    <path d="M173.19,268.02L173.64,220.21L170.72,268.02L173.19,268.02Z" style="fill-opacity:0.1;fill-rule:nonzero;"/>
    <path d="M227.74,220.21L227.29,268.02L224.82,268.02L227.74,220.21Z" style="fill-opacity:0.1;fill-rule:nonzero;"/>
    <path d="M278.93,268.02L281.85,220.21L281.41,268.02L278.93,268.02Z" style="fill-opacity:0.1;fill-rule:nonzero;"/>
</svg>
