<?xml version="1.0" encoding="utf-8"?>
<!-- Generator: Adobe Illustrator 21.1.0, SVG Export Plug-In . SVG Version: 6.00 Build 0)  -->
<svg version="1.1" id="Layer_1" xmlns="http://www.w3.org/2000/svg" xmlns:xlink="http://www.w3.org/1999/xlink" x="0px" y="0px"
	 viewBox="0 0 227 274" style="enable-background:new 0 0 227 274;" xml:space="preserve">
<style type="text/css">
	.st0{fill:#FFFFFF;}
</style>
<title>buzzcut</title>
<desc>Created with Sketch.</desc>
<g id="Page-1-Copy">
	<g id="Artboard" transform="translate(-13530.000000, -6651.000000)">
		<g id="buzzcut" transform="translate(13529.721759, 6650.465700)">
			<ellipse id="Oval-143" class="st0" cx="119.8" cy="135.5" rx="99.5" ry="128"/>
			<path id="Fill-157" d="M2,98.8c0.2-13.2,4.8-25.1,11.1-36.4c1.9-3.5,5.4-4.7,9.3-4.6c4.1,0.1,7,2.2,9,5.4c2.5,4,0.2,3.7-0.9,8.2
				c-1.1,4.4-6.7,9.5-8.1,13.8c-12.5,37.4-4,105.7,13.5,139.3c6.1,11.6,16.6,19.5,29.7,23.1c5.3,1.5,10.7,2.8,16,4.1
				c16.6,4.1,45.4,3.3,66.4-4.1c21.3-7.5,33.1-33.9,41.7-53.7C196.6,178,209,154.2,209,107c0-10.2-3.7-30.8-4.1-40.9
				c-0.1-2.2,1.8-5,3.6-6.5c1.9-1.7,8.7,0.9,9.8,3c0.4,0.8,1,1.6,1.4,2.4c16.3,33.9-1.6,106.9-5.4,119.2
				c-5.3,16.7-12.1,32.7-24.3,45.8C182.3,238,172,262,141,271c-10.2,3-32.9,3.8-43.1,2.4c-25.9-3.5-50.5-10-69.1-30.1
				c-4.3-4.7-8.5-9.7-11.6-15.2C2.2,202.2-1.3,145.8,1.9,115.3C1.9,109.8,1.9,104.3,2,98.8z"/>
			<path id="Fill-249" d="M76.2,190c2.5-0.5,5.4-0.5,7.9,0.1c5.3,1.2,10.3,3.5,15.7,4.4c11,1.7,21.3,1.5,30.7-2.8
				c2.1-0.9,3.3-1.2,5.1-1.7c2.6-0.8,7.1-1.5,9,1.8c1.4,2.5,1.4,5,0,7.6c-5.4,10-16.6,12.2-30.4,11.6c-12.9-0.6-29.9-1.6-37.4-7.8
				c-2.8-2.4-4.9-5.4-3.4-10C74,192.4,74.9,190.3,76.2,190z"/>
			<path id="Fill-353" d="M147.7,144.9c-0.3,7.5-0.9,14.6-6.1,20.6c-2.2,2.5-7,3-9.5,0.3c-2.5-2.8-4.6-6-3.9-9.8
				c1.1-6.2,2.8-12.4,4.3-18.6c0.9-3.7,4.8-6.4,7.8-5.5c3.5,1,6.3,4.2,6.7,7.7C147.2,141.4,147.5,143.2,147.7,144.9"/>
			<path id="Fill-365" d="M87.6,150.2c1.2-4.7,2.3-9.4,3.6-13.9c1-3.3,5.9-5.9,8.9-5.1c3.2,0.8,6.9,5,7.2,7.9
				c1.2,9.1-1.8,17-6.5,24.3c-0.9,1.4-3.4,2.7-4.6,2.4c-2.4-0.7-5.4-2.2-6.4-4.3C88.3,158.1,88.3,154.1,87.6,150.2"/>
			<path id="Fill-381" d="M77,2.2c2.1,0.8,5.1,1,7,2.6c6.9,6,8.1,14,3.8,22.3c-1.3,2.5-7.9,4.6-9.8,3c-7-5.7-9.7-16.4-6-24.8
				C72.6,4.1,74.9,3.5,77,2.2"/>
			<path id="Fill-409" d="M154.1,4.2c3.3,0.2,6.3,4,6.1,7.6c-0.3,6-4,9.9-8.4,13.3c-2.9,2.3-7.2,2.4-10.1,0.2c-3.9-3-5.3-8.3-3-12
				C142.3,7.6,146.7,3.3,154.1,4.2"/>
			<path id="Fill-417" d="M56,39.1c0.3,3.8-2.1,7.8-5.4,7.9c-2.4,0.1-5.5-0.5-7.2-2c-4.2-3.5-6.8-8.5-6.4-14c0.2-2.2,2.2-4.6,4-6.2
				c1-0.9,3.6-0.8,4.9-0.2C53,28.3,55.4,32.1,56,39.1"/>
			<path id="Fill-429" d="M111.5,12.3c0.7-3.1,0.7-5.6,1.9-7.4s3.3-3.2,5.3-4c2.5-1,7,2.9,7.2,5.8c0.4,5.8-0.6,11.3-3.8,16.1
				c-0.6,0.9-2.1,2-2.7,1.8c-2-0.8-4.7-1.8-5.5-3.5C112.3,18.2,112,14.7,111.5,12.3"/>
			<path id="Fill-429_1_" d="M178.9,28.8c2.4-2.2,3.8-4.3,5.7-5.1c1.9-0.8,4.5-0.8,6.6-0.4c2.6,0.5,4.2,6.3,2.7,8.8
				c-2.9,5.1-6.8,9-12.2,11.2c-1,0.4-2.9,0.5-3.3-0.1c-1.2-1.8-2.9-4.1-2.6-6C176.2,34.1,178,31.1,178.9,28.8"/>
		</g>
	</g>
</g>
</svg>
